<?xml version="1.0" encoding="utf-8"?>
<!-- Generator: Adobe Illustrator 23.0.2, SVG Export Plug-In . SVG Version: 6.00 Build 0)  -->
<svg version="1.1" id="Layer_1" xmlns="http://www.w3.org/2000/svg" xmlns:xlink="http://www.w3.org/1999/xlink" x="0px" y="0px"
	 viewBox="0 0 830.78 338.83" style="enable-background:new 0 0 830.78 338.83;" xml:space="preserve">
<style type="text/css">
	.st0{fill:#FFFFFF;}
	.st1{fill:#999999;}
	.st2{fill:#E52020;}
</style>
<g>
	<g>
		<path d="M164.35,205.72c0-4.04,0.44-7.7,1.33-10.98c0.89-3.28,2.23-6.08,4.03-8.41c1.8-2.32,4.07-4.12,6.8-5.38
			c2.74-1.26,5.95-1.9,9.65-1.9c2.57,0,4.97,0.37,7.21,1.11c2.23,0.74,4.17,1.82,5.82,3.25c1.65,1.42,2.97,3.14,3.97,5.16
			c0.99,2.02,1.56,4.27,1.71,6.75h-9.7c-0.24-2.7-1.2-4.72-2.86-6.05c-1.67-1.34-3.95-2.01-6.84-2.01c-1.53,0-2.96,0.25-4.29,0.75
			c-1.33,0.5-2.46,1.2-3.41,2.1c-0.95,0.9-1.68,1.99-2.21,3.28c-0.52,1.29-0.78,2.74-0.78,4.34v15.54c0,1.53,0.29,2.95,0.86,4.25
			c0.57,1.3,1.35,2.42,2.35,3.36c1,0.94,2.16,1.67,3.48,2.19c1.33,0.52,2.75,0.78,4.29,0.78c3.03,0,5.37-0.66,7.01-1.97
			s2.71-3.46,3.2-6.46h9.7c-0.39,2.94-1.15,5.46-2.29,7.55c-1.14,2.09-2.58,3.81-4.33,5.14c-1.75,1.34-3.76,2.33-6.04,2.99
			c-2.28,0.66-4.74,0.98-7.39,0.98c-3.7,0-6.87-0.66-9.52-1.99c-2.65-1.33-4.85-3.16-6.6-5.49c-1.75-2.33-3.05-5.11-3.88-8.33
			C164.77,213.06,164.35,209.54,164.35,205.72z"/>
		<path d="M213.71,205.57c0-8.7,1.96-15.3,5.89-19.79c3.93-4.49,9.5-6.73,16.72-6.73c7.21,0,12.78,2.24,16.71,6.73
			c3.93,4.49,5.9,11.08,5.9,19.79c0,8.71-1.97,15.3-5.9,19.79c-3.93,4.49-9.5,6.73-16.71,6.73c-7.22,0-12.8-2.24-16.72-6.73
			C215.67,220.87,213.71,214.28,213.71,205.57z M224.14,213.41c0,1.7,0.33,3.2,0.98,4.49c0.66,1.29,1.53,2.38,2.63,3.28
			c1.09,0.9,2.37,1.57,3.83,2.01c1.46,0.44,3.04,0.66,4.74,0.66c1.7,0,3.29-0.22,4.76-0.66c1.47-0.44,2.75-1.11,3.85-2.01
			s1.96-2,2.61-3.3c0.64-1.3,0.97-2.79,0.97-4.47v-15.68c0-1.7-0.32-3.2-0.97-4.49c-0.64-1.29-1.51-2.38-2.61-3.28
			c-1.09-0.9-2.38-1.57-3.85-2.02c-1.47-0.45-3.06-0.67-4.76-0.67c-1.7,0-3.28,0.23-4.74,0.67c-1.46,0.45-2.74,1.13-3.83,2.02
			c-1.09,0.9-1.97,1.99-2.63,3.28c-0.66,1.29-0.98,2.78-0.98,4.49V213.41z"/>
		<path d="M269.85,230.96v-50.81h17.18c8.02,0,13.79,2.1,17.31,6.31c3.51,4.21,5.27,10.58,5.27,19.11c0,8.51-1.76,14.87-5.27,19.08
			s-9.28,6.31-17.31,6.31H269.85z M279.56,222.75h7.48c4.04,0,7.12-0.8,9.26-2.39c2.14-1.59,3.21-4.09,3.21-7.5v-14.63
			c0-3.38-1.07-5.87-3.21-7.46c-2.14-1.59-5.23-2.39-9.26-2.39h-7.48V222.75z"/>
		<path d="M320.64,230.96v-50.81h34.94v8.24h-25.24v12.47h21.81v8.21h-21.81v13.68h25.24v8.21H320.64z"/>
		<path d="M366.72,230.96v-50.81h17.18c8.02,0,13.79,2.1,17.31,6.31c3.51,4.21,5.27,10.58,5.27,19.11c0,8.51-1.76,14.87-5.27,19.08
			s-9.28,6.31-17.31,6.31H366.72z M376.42,222.75h7.48c4.04,0,7.12-0.8,9.26-2.39c2.14-1.59,3.21-4.09,3.21-7.5v-14.63
			c0-3.38-1.07-5.87-3.21-7.46c-2.14-1.59-5.23-2.39-9.26-2.39h-7.48V222.75z"/>
	</g>
	<g>
		<path class="st2" d="M412.59,188.39v-8.24h39.32v8.24H437.1v42.56h-9.7v-42.56H412.59z"/>
		<path class="st2" d="M460.5,230.96v-50.81h9.7v20.86h20.24v-20.86h9.7v50.81h-9.7v-21.74H470.2v21.74H460.5z"/>
		<path class="st2" d="M513.14,230.96v-50.81h9.7v50.81H513.14z"/>
		<path class="st2" d="M535.84,230.96v-50.81h14.49l15.2,38.7h0.29v-38.7h9.7v50.81h-14.63l-15.2-38.77h-0.29v38.77H535.84z"/>
		<path class="st2" d="M588.48,230.96v-50.81h9.7v50.81H588.48z M598.33,203.86l18.31-23.71h11.42l-19.04,23.71l20.1,27.1h-11.2
			L598.33,203.86z"/>
		<path class="st2" d="M637.6,230.96v-50.81h9.7v50.81H637.6z"/>
		<path class="st2" d="M660.29,230.96v-50.81h14.49l15.2,38.7h0.29v-38.7h9.7v50.81h-14.63l-15.2-38.77h-0.29v38.77H660.29z"/>
		<path class="st2" d="M710.85,205.72c0-4.04,0.44-7.7,1.33-10.98c0.89-3.28,2.24-6.08,4.07-8.41c1.82-2.32,4.13-4.12,6.91-5.38
			c2.78-1.26,6.07-1.9,9.87-1.9c2.7,0,5.18,0.37,7.44,1.11c2.26,0.74,4.22,1.82,5.89,3.25c1.67,1.42,3.01,3.14,4.03,5.16
			c1.02,2.02,1.61,4.27,1.75,6.75h-9.7c-0.56-5.37-3.93-8.06-10.1-8.06c-3.28,0-5.95,0.95-7.99,2.84c-2.04,1.9-3.06,4.44-3.06,7.62
			v15.54c0,1.53,0.29,2.95,0.86,4.25s1.36,2.42,2.35,3.36s2.17,1.67,3.52,2.19c1.35,0.52,2.83,0.78,4.43,0.78
			c3.28,0,5.9-0.82,7.86-2.46c1.96-1.64,2.94-4.22,2.94-7.75v-2.19h-10.43v-8.21h20.17v27.72h-9.04l-0.22-4.63
			c-2.6,3.84-6.66,5.76-12.18,5.76c-3.43,0-6.44-0.66-9.03-1.99c-2.59-1.33-4.75-3.16-6.47-5.49c-1.73-2.33-3.02-5.11-3.88-8.33
			C711.29,213.06,710.85,209.54,710.85,205.72z"/>
	</g>
	<g>
		<path d="M163.43,280.75v-28.23h5.19v9.93c0.66-1.05,1.5-1.88,2.52-2.47c1.02-0.59,2.24-0.89,3.66-0.89c1.4,0,2.63,0.29,3.69,0.87
			c1.05,0.58,1.93,1.37,2.61,2.36c0.69,0.99,1.2,2.17,1.53,3.53c0.33,1.36,0.5,2.8,0.5,4.33c0,1.55-0.17,3-0.5,4.34
			s-0.84,2.51-1.53,3.51c-0.69,1-1.56,1.79-2.61,2.37s-2.28,0.87-3.69,0.87c-1.41,0-2.62-0.3-3.65-0.89
			c-1.03-0.59-1.87-1.42-2.53-2.47v2.86H163.43z M168.62,271.76c0,1.66,0.38,2.99,1.13,3.98c0.76,0.99,1.97,1.49,3.63,1.49
			c1.35,0,2.41-0.37,3.19-1.1c0.78-0.74,1.17-1.73,1.17-2.97v-5.98c0-1.24-0.39-2.23-1.16-2.96c-0.77-0.73-1.84-1.09-3.2-1.09
			c-1.66,0-2.87,0.5-3.63,1.49c-0.76,0.99-1.13,2.32-1.13,3.98V271.76z"/>
		<path d="M185.85,259.6h5.57l4.6,15.1h0.16l4.74-15.1h5.49l-10.23,28.21h-9.04v-4.01h5.31l1.03-3.04L185.85,259.6z"/>
		<path d="M221.75,280.75v-28.23h5.39v28.23H221.75z M227.22,265.7l10.17-13.17h6.34l-10.58,13.17l11.16,15.06h-6.22L227.22,265.7z"
			/>
		<path d="M246.21,270.18c0-1.66,0.22-3.17,0.67-4.53c0.45-1.36,1.09-2.53,1.93-3.51s1.88-1.73,3.11-2.26s2.63-0.79,4.21-0.79
			c1.58,0,2.99,0.26,4.22,0.79s2.27,1.28,3.11,2.26c0.84,0.98,1.49,2.15,1.93,3.51c0.44,1.36,0.66,2.87,0.66,4.53
			c0,1.66-0.22,3.17-0.66,4.52c-0.44,1.35-1.08,2.52-1.93,3.51c-0.85,0.99-1.88,1.74-3.11,2.27s-2.64,0.79-4.22,0.79
			c-1.58,0-2.98-0.26-4.21-0.79s-2.26-1.28-3.11-2.27c-0.84-0.99-1.49-2.15-1.93-3.51C246.43,273.35,246.21,271.84,246.21,270.18z
			 M251.6,273.24c0,1.27,0.43,2.25,1.29,2.95c0.86,0.7,1.94,1.04,3.24,1.04c1.3,0,2.38-0.34,3.24-1.01
			c0.86-0.68,1.29-1.67,1.29-2.98v-6.14c0-1.3-0.43-2.28-1.29-2.96c-0.86-0.68-1.94-1.01-3.24-1.01c-1.3,0-2.38,0.34-3.24,1.03
			c-0.86,0.69-1.29,1.67-1.29,2.94V273.24z"/>
		<path d="M271.52,280.75V259.6h11.81v4.05h-6.63v17.1H271.52z"/>
		<path d="M286.56,270.14c0-1.66,0.23-3.17,0.69-4.53c0.46-1.36,1.1-2.52,1.93-3.49c0.83-0.97,1.83-1.71,3.01-2.24
			c1.17-0.53,2.48-0.79,3.91-0.79c1.43,0,2.73,0.26,3.9,0.77c1.17,0.51,2.17,1.22,3,2.12s1.47,1.97,1.91,3.21
			c0.44,1.24,0.66,2.59,0.66,4.03v2.61h-13.62v1.4c0,1.27,0.42,2.25,1.25,2.95c0.83,0.7,1.82,1.04,2.96,1.04s2.06-0.3,2.78-0.89
			c0.72-0.59,1.14-1.43,1.28-2.51h5.19c-0.34,2.35-1.33,4.18-2.97,5.48s-3.76,1.96-6.34,1.96c-1.5,0-2.84-0.27-4.02-0.81
			c-1.18-0.54-2.18-1.3-3-2.27c-0.82-0.97-1.44-2.14-1.87-3.51C286.77,273.31,286.56,271.8,286.56,270.14z M291.95,267.81h8.31
			v-0.75c0-1.16-0.39-2.11-1.18-2.84s-1.78-1.09-2.99-1.09c-1.19,0-2.18,0.36-2.97,1.09c-0.79,0.73-1.18,1.68-1.18,2.84V267.81z"/>
		<path d="M311.12,280.75V259.6h5.19v3.06c0.63-1.13,1.46-2.01,2.48-2.63c1.02-0.62,2.28-0.93,3.78-0.93c2.38,0,4.13,0.69,5.25,2.08
			c1.12,1.38,1.68,3.29,1.68,5.72v13.86h-5.19v-13.49c0-1.24-0.26-2.21-0.79-2.9c-0.53-0.69-1.41-1.03-2.65-1.03
			c-1.43,0-2.55,0.48-3.35,1.43c-0.8,0.95-1.21,2.21-1.21,3.76v12.24H311.12z"/>
	</g>
</g>
<rect x="764.8" y="220.2" class="st2" width="10.76" height="10.76"/>
<g>
	<path class="st2" d="M98.62,180.4v18.52c0,1.66,1.34,3,3,3h15.52c1.66,0,3-1.34,3-3V183.4c0-1.66-1.34-3-3-3H98.62z"/>
	<path class="st2" d="M98.62,137.36H58.58c-1.66,0-3,1.34-3,3v37.04c0,1.66,1.34,3,3,3h40.04V137.36z"/>
	<path class="st2" d="M98.62,54.29v83.07h83.07c1.66,0,3-1.34,3-3V54.29c0-1.66-1.34-3-3-3h-80.07
		C99.96,51.29,98.62,52.63,98.62,54.29z"/>
</g>
</svg>
